<svg width="19" height="17" viewBox="0 0 19 17" fill="#9EA2BB" xmlns="http://www.w3.org/2000/svg">
<path fill-rule="evenodd" clip-rule="evenodd" d="M0.787109 8.49951C0.787109 8.19285 0.904128 7.89876 1.11242 7.68192C1.32071 7.46508 1.60322 7.34326 1.89779 7.34326H14.7662L9.9969 2.38063C9.78834 2.16352 9.67117 1.86905 9.67117 1.56201C9.67117 1.25496 9.78834 0.960496 9.9969 0.743383C10.2055 0.52627 10.4883 0.404297 10.7833 0.404297C11.0782 0.404297 11.3611 0.52627 11.5696 0.743383L18.2337 7.68088C18.3372 7.78829 18.4192 7.91588 18.4752 8.05636C18.5312 8.19683 18.56 8.34742 18.56 8.49951C18.56 8.6516 18.5312 8.80219 18.4752 8.94266C18.4192 9.08313 18.3372 9.21073 18.2337 9.31813L11.5696 16.2556C11.3611 16.4727 11.0782 16.5947 10.7833 16.5947C10.4883 16.5947 10.2055 16.4727 9.9969 16.2556C9.78834 16.0385 9.67117 15.7441 9.67117 15.437C9.67117 15.13 9.78834 14.8355 9.9969 14.6184L14.7662 9.65576H1.89779C1.60322 9.65576 1.32071 9.53394 1.11242 9.3171C0.904128 9.10026 0.787109 8.80617 0.787109 8.49951Z" fill="#9EA2BB"/>
</svg>
