<svg width="61" height="61" viewBox="0 0 61 61" fill="none" xmlns="http://www.w3.org/2000/svg">
<circle cx="30.5" cy="30.5" r="30.5" transform="rotate(180 30.5 30.5)" fill="#D8D8EA" fill-opacity="0.5"/>
<path fill-rule="evenodd" clip-rule="evenodd" d="M42 30.8294C42 31.2147 41.8486 31.5841 41.579 31.8566C41.3095 32.129 40.9439 32.2821 40.5627 32.2821L23.9096 32.2821L30.0816 38.517C30.3515 38.7898 30.5031 39.1597 30.5031 39.5455C30.5031 39.9312 30.3515 40.3012 30.0816 40.574C29.8117 40.8468 29.4456 41 29.0639 41C28.6823 41 28.3162 40.8468 28.0463 40.574L19.4223 31.8579C19.2884 31.7229 19.1822 31.5626 19.1098 31.3861C19.0373 31.2097 19 31.0205 19 30.8294C19 30.6383 19.0373 30.4491 19.1098 30.2726C19.1822 30.0961 19.2884 29.9358 19.4223 29.8009L28.0463 21.0848C28.3162 20.812 28.6823 20.6588 29.0639 20.6588C29.4456 20.6588 29.8117 20.812 30.0816 21.0848C30.3515 21.3575 30.5031 21.7275 30.5031 22.1133C30.5031 22.499 30.3515 22.869 30.0816 23.1418L23.9096 29.3767L40.5627 29.3767C40.9439 29.3767 41.3095 29.5297 41.579 29.8022C41.8486 30.0746 42 30.4441 42 30.8294Z" fill="white"/>
</svg>
