<svg width="30" height="30" viewBox="0 0 30 30" fill="none" xmlns="http://www.w3.org/2000/svg">
<path d="M15 0.9375C8.53781 0.9375 3.28125 6.195 3.28125 12.6562C3.28125 19.1175 8.53828 24.375 15 24.375C21.4622 24.375 26.7188 19.1175 26.7188 12.6562C26.7188 6.195 21.4617 0.9375 15 0.9375ZM15 22.0317C9.83016 22.0317 5.62453 17.8261 5.62453 12.6562C5.62453 7.48734 9.82969 3.28172 15 3.28172C20.1694 3.28172 24.3745 7.48734 24.3745 12.6562C24.3741 17.8261 20.1689 22.0317 15 22.0317Z" fill="#F0F1F1"/>
<path d="M11.913 9.06422C12.3471 8.604 12.866 8.23188 13.4411 7.96828C14.0282 7.69858 14.6672 7.56097 15.3133 7.56516C16.1331 7.56516 16.8855 7.76062 17.5712 8.15156C18.2473 8.53387 18.8233 9.07068 19.2522 9.71813L20.9228 8.46891C20.2881 7.60238 19.4635 6.89269 18.512 6.39422C17.5455 5.88141 16.4786 5.625 15.3128 5.625C14.3523 5.625 13.4495 5.81062 12.6048 6.18281C11.7792 6.53988 11.0293 7.05139 10.3956 7.68984C9.76283 8.33211 9.25765 9.08862 8.90687 9.91922C8.54172 10.7695 8.35938 11.6831 8.35938 12.6567C8.35938 13.6294 8.54172 14.542 8.90687 15.3947C9.25727 16.2249 9.76251 16.9809 10.3956 17.6222C11.0294 18.2611 11.7792 18.7732 12.6048 19.1311C13.45 19.5014 14.3528 19.6875 15.3128 19.6875C16.4786 19.6875 17.545 19.4311 18.512 18.9178C19.464 18.4201 20.2888 17.7103 20.9228 16.8431L19.2522 15.5958C18.8225 16.2423 18.2467 16.7785 17.5712 17.1609C16.8855 17.5514 16.1331 17.7469 15.3133 17.7469C14.6672 17.7513 14.0281 17.6137 13.4411 17.3438C12.8659 17.0803 12.347 16.7082 11.913 16.2478C11.478 15.7884 11.132 15.2489 10.8756 14.6348C10.6192 14.0208 10.4912 13.3603 10.4912 12.6567C10.4912 11.9517 10.6192 11.2922 10.8756 10.6777C11.132 10.0631 11.478 9.52547 11.913 9.06422Z" fill="#F0F1F1"/>
</svg>
