<svg width="61" height="61" viewBox="0 0 61 61" fill="none" xmlns="http://www.w3.org/2000/svg">
<circle cx="30.5" cy="30.5" r="30.5" fill="#D8D8EA"/>
<path fill-rule="evenodd" clip-rule="evenodd" d="M19 30.1706C19 29.7853 19.1514 29.4159 19.421 29.1434C19.6905 28.871 20.0561 28.7179 20.4373 28.7179H37.0904L30.9184 22.483C30.6485 22.2102 30.4969 21.8403 30.4969 21.4545C30.4969 21.0688 30.6485 20.6988 30.9184 20.426C31.1883 20.1532 31.5544 20 31.9361 20C32.3177 20 32.6838 20.1532 32.9537 20.426L41.5777 29.1421C41.7116 29.2771 41.8178 29.4374 41.8902 29.6139C41.9627 29.7903 42 29.9795 42 30.1706C42 30.3617 41.9627 30.5509 41.8902 30.7274C41.8178 30.9039 41.7116 31.0642 41.5777 31.1991L32.9537 39.9152C32.6838 40.188 32.3177 40.3412 31.9361 40.3412C31.5544 40.3412 31.1883 40.188 30.9184 39.9152C30.6485 39.6425 30.4969 39.2725 30.4969 38.8867C30.4969 38.501 30.6485 38.131 30.9184 37.8582L37.0904 31.6233H20.4373C20.0561 31.6233 19.6905 31.4703 19.421 31.1978C19.1514 30.9254 19 30.5559 19 30.1706Z" fill="white"/>
</svg>
