<svg width="18" height="18" viewBox="0 0 18 18" fill="#black" xmlns="http://www.w3.org/2000/svg">
<path d="M9 0.28125C4.18594 0.28125 0.28125 4.18594 0.28125 9C0.28125 13.8141 4.18594 17.7188 9 17.7188C13.8141 17.7188 17.7188 13.8141 17.7188 9C17.7188 4.18594 13.8141 0.28125 9 0.28125ZM13.1367 12.2273L12.4664 13.1414C12.4518 13.1613 12.4335 13.1781 12.4124 13.1909C12.3913 13.2037 12.3678 13.2122 12.3434 13.2159C12.319 13.2196 12.2942 13.2184 12.2702 13.2125C12.2463 13.2065 12.2237 13.1959 12.2039 13.1813L8.32734 10.3547C8.30319 10.3373 8.28356 10.3145 8.2701 10.2879C8.25664 10.2614 8.24975 10.2321 8.25 10.2023V3.75C8.25 3.64687 8.33438 3.5625 8.4375 3.5625H9.56484C9.66797 3.5625 9.75234 3.64687 9.75234 3.75V9.55078L13.0945 11.9672C13.1789 12.0258 13.1977 12.143 13.1367 12.2273Z" fill="black" fill-opacity="0.1"/>
</svg>
