<svg width="90" height="90" viewBox="0 0 90 90" fill="none" xmlns="http://www.w3.org/2000/svg">
<path d="M79.4065 49.4063C79.5993 48 79.6957 46.5469 79.6957 45C79.6957 43.5 79.5993 42 79.3583 40.5938L89.1406 33.1875C89.5621 32.8495 89.8501 32.3798 89.9556 31.8584C90.061 31.3371 89.9774 30.7962 89.7189 30.3281L80.4667 14.7656C80.1943 14.2948 79.7594 13.933 79.239 13.7443C78.7186 13.5555 78.1463 13.552 77.6236 13.7344L66.1065 18.2344C63.6971 16.4531 61.1431 14.9531 58.3 13.8281L56.5652 1.92189C56.4799 1.38531 56.1995 0.896297 55.7751 0.543652C55.3507 0.191007 54.8103 -0.00188205 54.2522 1.38441e-05H35.7478C34.5913 1.38441e-05 33.6757 0.796888 33.483 1.92189L31.7482 13.8281C28.9051 14.9531 26.3029 16.5 23.9417 18.2344L12.4246 13.7344C11.3645 13.3594 10.1598 13.7344 9.58151 14.7656L0.377523 30.3281C-0.200738 31.3125 -0.00798512 32.5313 0.955783 33.1875L10.738 40.5938C10.4971 42 10.3043 43.5469 10.3043 45C10.3043 46.4531 10.4007 48 10.6417 49.4063L0.859407 56.8125C0.437873 57.1505 0.14985 57.6202 0.044408 58.1416C-0.0610337 58.663 0.0226306 59.2038 0.281146 59.6719L9.53332 75.2344C10.1116 76.2656 11.3163 76.5938 12.3764 76.2656L23.8935 71.7656C26.3029 73.5469 28.8569 75.0469 31.7 76.1719L33.4348 88.0781C33.6757 89.2031 34.5913 90 35.7478 90H54.2522C55.4087 90 56.3725 89.2031 56.517 88.0781L58.2518 76.1719C61.0949 75.0469 63.6971 73.5469 66.0583 71.7656L77.5754 76.2656C78.6355 76.6406 79.8402 76.2656 80.4185 75.2344L89.6707 59.6719C90.2489 58.6406 90.008 57.4688 89.0924 56.8125L79.4065 49.4063ZM45 61.875C35.4587 61.875 27.6522 54.2813 27.6522 45C27.6522 35.7188 35.4587 28.125 45 28.125C54.5413 28.125 62.3478 35.7188 62.3478 45C62.3478 54.2813 54.5413 61.875 45 61.875Z" fill="#2750A8"/>
</svg>
