<svg width="45" height="45" viewBox="0 0 45 45" fill="none" xmlns="http://www.w3.org/2000/svg">
<path d="M22.5 42.1875C17.2786 42.1875 12.271 40.1133 8.57884 36.4212C4.88671 32.729 2.8125 27.7215 2.8125 22.5C2.8125 17.2786 4.88671 12.271 8.57884 8.57884C12.271 4.88671 17.2786 2.8125 22.5 2.8125C27.7215 2.8125 32.729 4.88671 36.4212 8.57884C40.1133 12.271 42.1875 17.2786 42.1875 22.5C42.1875 27.7215 40.1133 32.729 36.4212 36.4212C32.729 40.1133 27.7215 42.1875 22.5 42.1875ZM22.5 45C28.4674 45 34.1903 42.6295 38.4099 38.4099C42.6295 34.1903 45 28.4674 45 22.5C45 16.5326 42.6295 10.8097 38.4099 6.5901C34.1903 2.37053 28.4674 0 22.5 0C16.5326 0 10.8097 2.37053 6.5901 6.5901C2.37053 10.8097 0 16.5326 0 22.5C0 28.4674 2.37053 34.1903 6.5901 38.4099C10.8097 42.6295 16.5326 45 22.5 45Z" fill="#A9A8B3"/>
<path d="M12.0516 26.9072C12.3745 26.7207 12.7584 26.6702 13.1186 26.7667C13.4789 26.8632 13.786 27.0989 13.9725 27.4219C14.8362 28.9191 16.0792 30.1623 17.5762 31.0263C19.0733 31.8904 20.7715 32.3448 22.5 32.3438C24.2285 32.3448 25.9267 31.8904 27.4238 31.0263C28.9208 30.1623 30.1638 28.9191 31.0275 27.4219C31.1192 27.2607 31.2418 27.1192 31.3884 27.0055C31.535 26.8919 31.7026 26.8084 31.8815 26.7598C32.0605 26.7112 32.2473 26.6985 32.4312 26.7224C32.6151 26.7463 32.7925 26.8064 32.9531 26.8991C33.1137 26.9918 33.2544 27.1154 33.3671 27.2627C33.4797 27.41 33.5621 27.5782 33.6095 27.7575C33.6569 27.9368 33.6684 28.1237 33.6433 28.3074C33.6181 28.4912 33.5569 28.6681 33.4631 28.8281C32.3525 30.7529 30.7545 32.3511 28.83 33.462C26.9054 34.5729 24.7222 35.1573 22.5 35.1562C20.2778 35.1573 18.0946 34.5729 16.17 33.462C14.2455 32.3511 12.6475 30.7529 11.5369 28.8281C11.3504 28.5051 11.2999 28.1213 11.3964 27.7611C11.4929 27.4008 11.7286 27.0937 12.0516 26.9072ZM19.6875 18.2812C19.6875 20.61 18.4275 22.5 16.875 22.5C15.3225 22.5 14.0625 20.61 14.0625 18.2812C14.0625 15.9525 15.3225 14.0625 16.875 14.0625C18.4275 14.0625 19.6875 15.9525 19.6875 18.2812ZM30.9375 18.2812C30.9375 20.61 29.6775 22.5 28.125 22.5C26.5725 22.5 25.3125 20.61 25.3125 18.2812C25.3125 15.9525 26.5725 14.0625 28.125 14.0625C29.6775 14.0625 30.9375 15.9525 30.9375 18.2812Z" fill="#A9A8B3"/>
</svg>
