<svg width="90" height="90" viewBox="0 0 90 90" fill="none" xmlns="http://www.w3.org/2000/svg">
<path d="M86.4 12.8571C86.4 11.1522 85.6414 9.51705 84.2912 8.31146C82.9409 7.10587 81.1096 6.42857 79.2 6.42857H64.8V0H57.6V6.42857H28.8V0H21.6V6.42857H7.2C5.29044 6.42857 3.45909 7.10587 2.10883 8.31146C0.758569 9.51705 0 11.1522 0 12.8571V77.1429C0 78.8478 0.758569 80.483 2.10883 81.6886C3.45909 82.8941 5.29044 83.5714 7.2 83.5714H21.6V77.1429H7.2V12.8571H21.6V19.2857H28.8V12.8571H57.6V19.2857H64.8V12.8571H79.2V32.1429H86.4V12.8571Z" fill="#2750A8"/>
<path d="M61.2 41.7857L70.3764 57.6579L90 60.2004L75.6 72.5561L79.2 90L61.2 81.765L43.2 90L46.8 72.5561L32.4 60.2004L52.56 57.6579L61.2 41.7857Z" fill="#2750A8"/>
</svg>
