<svg width="80" height="80" viewBox="0 0 80 80" fill="none" xmlns="http://www.w3.org/2000/svg">
<path d="M54.2857 56C53.528 56 52.8012 56.4214 52.2654 57.1716C51.7296 57.9217 51.4286 58.9391 51.4286 60C51.4286 61.0609 51.7296 62.0783 52.2654 62.8284C52.8012 63.5786 53.528 64 54.2857 64H65.7143C66.4721 64 67.1988 63.5786 67.7346 62.8284C68.2704 62.0783 68.5714 61.0609 68.5714 60C68.5714 58.9391 68.2704 57.9217 67.7346 57.1716C67.1988 56.4214 66.4721 56 65.7143 56H54.2857Z" fill="#2750A8"/>
<path d="M0 16C0 11.7565 1.20408 7.68687 3.34735 4.68629C5.49062 1.68571 8.39753 0 11.4286 0H68.5714C71.6025 0 74.5094 1.68571 76.6526 4.68629C78.7959 7.68687 80 11.7565 80 16V64C80 68.2435 78.7959 72.3131 76.6526 75.3137C74.5094 78.3143 71.6025 80 68.5714 80H11.4286C8.39753 80 5.49062 78.3143 3.34735 75.3137C1.20408 72.3131 0 68.2435 0 64V16ZM74.2857 16C74.2857 13.8783 73.6837 11.8434 72.612 10.3431C71.5404 8.84286 70.087 8 68.5714 8H11.4286C9.91305 8 8.4596 8.84286 7.38796 10.3431C6.31632 11.8434 5.71429 13.8783 5.71429 16V24H74.2857V16ZM5.71429 64C5.71429 66.1217 6.31632 68.1566 7.38796 69.6569C8.4596 71.1571 9.91305 72 11.4286 72H68.5714C70.087 72 71.5404 71.1571 72.612 69.6569C73.6837 68.1566 74.2857 66.1217 74.2857 64V32H5.71429V64Z" fill="#2750A8"/>
</svg>
