<svg width="45" height="45" viewBox="0 0 45 45" fill="none" xmlns="http://www.w3.org/2000/svg">
<path d="M22.5 45C18.0499 45 13.6998 43.6804 9.99968 41.2081C6.29957 38.7357 3.41569 35.2217 1.71272 31.1104C0.00974854 26.999 -0.435826 22.475 0.432341 18.1105C1.30051 13.7459 3.44342 9.73679 6.59011 6.59011C9.73679 3.44342 13.7459 1.30051 18.1105 0.432341C22.475 -0.435826 26.999 0.00974854 31.1104 1.71272C35.2217 3.41569 38.7357 6.29957 41.2081 9.99968C43.6804 13.6998 45 18.0499 45 22.5C44.9932 28.4653 42.6205 34.1843 38.4024 38.4024C34.1843 42.6205 28.4653 44.9932 22.5 45ZM22.5 2.64707C18.5735 2.64707 14.7351 3.81142 11.4703 5.99289C8.20551 8.17436 5.6609 11.275 4.15828 14.9026C2.65566 18.5303 2.26251 22.522 3.02854 26.3731C3.79457 30.2242 5.68538 33.7617 8.46186 36.5382C11.2383 39.3146 14.7758 41.2054 18.6269 41.9715C22.478 42.7375 26.4697 42.3443 30.0974 40.8417C33.725 39.3391 36.8256 36.7945 39.0071 33.5297C41.1886 30.2649 42.3529 26.4265 42.3529 22.5C42.347 17.2365 40.2534 12.1903 36.5316 8.46844C32.8097 4.74658 27.7635 2.65302 22.5 2.64707ZM32.3345 34.2338C32.6383 34.058 32.8599 33.7687 32.9504 33.4296C33.041 33.0904 32.9931 32.7292 32.8174 32.4254C31.7708 30.6154 30.2666 29.1126 28.4557 28.0679C26.6447 27.0231 24.5908 26.4731 22.5001 26.4731C20.4094 26.4731 18.3555 27.0231 16.5446 28.0679C14.7336 29.1126 13.2294 30.6154 12.1829 32.4254C12.0938 32.5759 12.0354 32.7426 12.0112 32.9158C11.9869 33.089 11.9972 33.2654 12.0415 33.4346C12.0858 33.6038 12.1632 33.7625 12.2693 33.9016C12.3753 34.0408 12.5078 34.1575 12.6592 34.2451C12.8107 34.3326 12.9779 34.3893 13.1514 34.4119C13.3248 34.4344 13.501 34.4223 13.6698 34.3764C13.8386 34.3304 13.9965 34.2514 14.1346 34.144C14.2727 34.0366 14.3881 33.9029 14.4741 33.7507C15.4851 32.0041 17.0364 30.6334 18.8943 29.8452C20.5925 29.1268 22.4666 28.932 24.2763 29.2859C26.0859 29.6397 27.7487 30.526 29.0513 31.8311C29.6244 32.4041 30.1202 33.0495 30.5261 33.7509C30.6131 33.9014 30.7289 34.0333 30.8668 34.139C31.0048 34.2448 31.1623 34.3223 31.3302 34.3671C31.4982 34.412 31.6733 34.4233 31.8456 34.4004C32.0179 34.3775 32.1841 34.3209 32.3345 34.2338ZM14.5588 20.2941C14.1225 20.2941 13.6961 20.1648 13.3333 19.9224C12.9706 19.68 12.6878 19.3355 12.5209 18.9324C12.3539 18.5293 12.3102 18.0858 12.3953 17.6579C12.4804 17.23 12.6905 16.8369 12.999 16.5284C13.3075 16.2199 13.7006 16.0099 14.1285 15.9247C14.5564 15.8396 14.9999 15.8833 15.403 16.0503C15.8061 16.2172 16.1506 16.5 16.393 16.8627C16.6353 17.2255 16.7647 17.652 16.7647 18.0882C16.7641 18.6731 16.5315 19.2338 16.1179 19.6473C15.7044 20.0609 15.1437 20.2935 14.5588 20.2941ZM30.4412 20.2941C30.0049 20.2941 29.5784 20.1648 29.2157 19.9224C28.8529 19.68 28.5702 19.3355 28.4032 18.9324C28.2363 18.5293 28.1926 18.0858 28.2777 17.6579C28.3628 17.23 28.5729 16.8369 28.8814 16.5284C29.1899 16.2199 29.5829 16.0099 30.0108 15.9247C30.4387 15.8396 30.8823 15.8833 31.2853 16.0503C31.6884 16.2172 32.0329 16.5 32.2753 16.8627C32.5177 17.2255 32.6471 17.652 32.6471 18.0882C32.6464 18.6731 32.4138 19.2338 32.0003 19.6473C31.5867 20.0609 31.026 20.2935 30.4412 20.2941Z" fill="#A9A8B3"/>
</svg>
