<svg width="90" height="91" viewBox="0 0 90 91" fill="none" xmlns="http://www.w3.org/2000/svg">
<path fill-rule="evenodd" clip-rule="evenodd" d="M45.1209 0.815827C45.6292 1.10127 46.0572 1.54468 46.3563 2.0955C46.6553 2.64631 46.8133 3.28236 46.8121 3.9311V87.0049C46.8125 87.6532 46.6541 88.2885 46.3549 88.8385C46.0557 89.3886 45.6277 89.8313 45.1198 90.1163C44.6118 90.4013 44.0442 90.517 43.4816 90.4504C42.919 90.3838 42.3841 90.1375 41.9376 89.7395L19.4557 69.6979H9.06042C6.65744 69.6979 4.35289 68.6038 2.65373 66.6564C0.954577 64.709 0 62.0677 0 59.3137L0 31.6224C0 28.8683 0.954577 26.227 2.65373 24.2796C4.35289 22.3322 6.65744 21.2381 9.06042 21.2381H19.4557L41.9376 1.19658C42.3844 0.798816 42.9197 0.552875 43.4825 0.486781C44.0453 0.420688 44.613 0.537098 45.1209 0.82275V0.815827ZM40.7719 11.0062L22.349 27.4341C21.8186 27.9059 21.1661 28.1617 20.4947 28.161H9.06042C8.25943 28.161 7.49124 28.5257 6.92485 29.1748C6.35847 29.8239 6.04028 30.7044 6.04028 31.6224V59.3137C6.04028 60.2317 6.35847 61.1121 6.92485 61.7612C7.49124 62.4104 8.25943 62.7751 9.06042 62.7751H20.4947C21.1661 62.7744 21.8186 63.0302 22.349 63.502L40.7719 79.9298V11.0062ZM62.082 20.1859C62.3461 19.9839 62.6423 19.8435 62.9537 19.7728C63.2652 19.702 63.5858 19.7024 63.8971 19.7737C64.2085 19.8451 64.5045 19.9861 64.7682 20.1887C65.032 20.3913 65.2583 20.6514 65.4343 20.9543C69.638 28.2208 71.8799 36.746 71.8799 45.4646C71.8799 54.1831 69.638 62.7083 65.4343 69.9748C65.0743 70.5722 64.524 70.9837 63.9019 71.1206C63.2798 71.2575 62.6356 71.1089 62.1081 70.7068C61.5807 70.3047 61.2121 69.6812 61.0818 68.9707C60.9515 68.2602 61.0699 67.5194 61.4115 66.908C65.0867 60.5509 67.0466 53.0939 67.0466 45.468C67.0466 37.8421 65.0867 30.3851 61.4115 24.028C61.2352 23.7254 61.1127 23.3858 61.051 23.0289C60.9893 22.6719 60.9896 22.3045 61.0519 21.9477C61.1142 21.5909 61.2372 21.2516 61.4139 20.9493C61.5907 20.647 61.8177 20.3876 62.082 20.1859ZM76.5786 3.4465C76.1637 2.8865 75.5717 2.53835 74.9328 2.47863C74.2939 2.41891 73.6605 2.65251 73.1719 3.12805C72.6833 3.60358 72.3795 4.2821 72.3274 5.01433C72.2753 5.74656 72.4791 6.47253 72.8941 7.03252C80.8182 17.7803 85.1657 31.3969 85.1657 45.468C85.1657 59.5392 80.8182 73.1557 72.8941 83.9035C72.4791 84.4635 72.2753 85.1895 72.3274 85.9217C72.3795 86.6539 72.6833 87.3325 73.1719 87.808C73.6605 88.2835 74.2939 88.5171 74.9328 88.4574C75.5717 88.3977 76.1637 88.0495 76.5786 87.4895C85.245 75.7405 90 60.8529 90 45.468C90 30.0831 85.245 15.1955 76.5786 3.4465Z" fill="#2750A8"/>
</svg>
